<svg width="17" height="19" viewBox="0 0 17 19" fill="none" xmlns="http://www.w3.org/2000/svg">
<path d="M3.6962 1.48267L1.3042 4.6704V15.8275C1.3042 16.2502 1.47221 16.6556 1.77127 16.9545C2.07032 17.2534 2.47593 17.4214 2.89887 17.4214H14.0615C14.4845 17.4214 14.8901 17.2534 15.1891 16.9545C15.4882 16.6556 15.6562 16.2502 15.6562 15.8275V4.6704L13.2642 1.48267H3.6962Z" stroke="#010101" stroke-width="1.5" stroke-linecap="round" stroke-linejoin="round"/>
<path d="M1.3042 4.67041H15.6562" stroke="#010101" stroke-width="1.5" stroke-linecap="round" stroke-linejoin="round"/>
<path d="M11.6697 7.85815C11.6697 8.7036 11.3337 9.51442 10.7355 10.1122C10.1374 10.7101 9.32621 11.0459 8.48035 11.0459C7.63448 11.0459 6.82326 10.7101 6.22515 10.1122C5.62703 9.51442 5.29102 8.7036 5.29102 7.85815" stroke="#010101" stroke-width="1.5" stroke-linecap="round" stroke-linejoin="round"/>
</svg>
