<svg width="29" height="24" viewBox="0 0 29 24" fill="none" xmlns="http://www.w3.org/2000/svg">
<path d="M17.2174 10L16.8696 17M12.9275 17L12.5797 10M7.94202 6L8.95877 19.1541C9.03929 20.1958 9.90803 21 10.9528 21H18.8443C19.8891 21 20.7578 20.1958 20.8383 19.1541L21.8551 6M7.94202 6H11.4203M7.94202 6H5.62318M21.8551 6H24.1739M21.8551 6H18.3768M18.3768 6V5C18.3768 3.89543 17.4814 3 16.3768 3H13.4203C12.3157 3 11.4203 3.89543 11.4203 5V6M18.3768 6H11.4203" stroke="#0E6657" stroke-width="1.8" stroke-linecap="round" stroke-linejoin="round"/>
</svg>
