<svg width="26" height="24" viewBox="0 0 26 24" fill="none" xmlns="http://www.w3.org/2000/svg">
<path d="M3.98615 8.95043C4.65653 6.17301 6.88803 4.00437 9.74596 3.35288C11.8099 2.88237 13.9579 2.88237 16.0219 3.35288C18.8798 4.00437 21.1113 6.17301 21.7817 8.95044C22.2658 10.9563 22.2658 13.0437 21.7817 15.0496C21.1113 17.827 18.8798 19.9956 16.0219 20.6471C13.9579 21.1176 11.8099 21.1176 9.74596 20.6471C6.88803 19.9956 4.65653 17.827 3.98615 15.0496C3.50201 13.0437 3.50201 10.9563 3.98615 8.95043Z" stroke="black" stroke-width="1.5"/>
<path d="M11.0126 11.2959C11.2218 10.7877 11.6362 10.385 12.1591 10.1817L14.2559 9.3666C15.0959 9.04008 15.9294 9.85016 15.5934 10.6665L14.7547 12.7042C14.5455 13.2124 14.1312 13.6151 13.6083 13.8184L11.5115 14.6334C10.6715 14.96 9.83794 14.1499 10.1739 13.3336L11.0126 11.2959Z" stroke="black" stroke-width="1.5" stroke-linecap="round" stroke-linejoin="round"/>
</svg>
