<svg width="47" height="44" viewBox="0 0 47 44" fill="none" xmlns="http://www.w3.org/2000/svg">
<g filter="url(#filter0_d_59_236)">
<ellipse cx="23.12" cy="17.5037" rx="19.12" ry="17.5037" fill="white"/>
<path d="M41.24 17.5037C41.24 26.5371 33.2124 34.0074 23.12 34.0074C13.0276 34.0074 5 26.5371 5 17.5037C5 8.47026 13.0276 1 23.12 1C33.2124 1 41.24 8.47026 41.24 17.5037Z" stroke="#FF785B" stroke-width="2"/>
</g>
<path d="M23.1203 25.5461C22.2577 25.5461 17.3627 21.5267 15.422 19.0364C15.1417 18.7305 14.8829 18.3373 14.6457 17.9004L14.581 17.7694C14.5379 17.6602 14.4732 17.5509 14.4301 17.398C14.3869 17.2888 14.3438 17.1577 14.3007 17.0267C14.1497 16.5024 14.0635 16.0218 14.0635 15.5631C14.0635 12.7233 16.3492 10.4077 19.1525 10.4077C20.7051 10.4077 22.1715 11.1286 23.1203 12.3519C24.0691 11.1286 25.5355 10.4077 27.0881 10.4077C29.8914 10.4077 32.1771 12.7233 32.1771 15.5631C32.1771 16.0655 32.0693 16.5242 31.9399 17.0048C31.9184 17.1577 31.8537 17.2888 31.8105 17.4199L31.789 17.4635C31.7674 17.5072 31.7458 17.5509 31.7243 17.5946C31.7027 17.6383 31.6812 17.7038 31.638 17.7694V17.7912L31.5949 17.9004C31.3577 18.3592 31.0989 18.7305 30.8186 19.0582C28.8779 21.5267 23.9829 25.5461 23.1203 25.5461ZM15.6376 17.4635C15.8317 17.8131 16.0258 18.097 16.2199 18.3155L16.2414 18.3592C18.2253 20.8713 22.2577 23.9733 23.1203 24.4102C23.9829 23.9514 28.0153 20.8713 29.9776 18.3373L29.9992 18.2936C30.2148 18.0752 30.4089 17.7912 30.5814 17.4417V17.398L30.6677 17.2669C30.6892 17.2233 30.7108 17.1796 30.7323 17.114C30.7539 17.0703 30.7755 17.0048 30.797 16.9393C30.8186 16.8519 30.8617 16.7864 30.8617 16.7208V16.699C30.9695 16.2839 31.0558 15.9126 31.0558 15.5194C31.0558 13.2694 29.266 11.4563 27.0449 11.4563C25.5786 11.4563 24.2632 12.2427 23.5516 13.5533L23.1203 14.4708L22.6459 13.6189C21.9343 12.3082 20.6189 11.5218 19.1525 11.5218C16.9315 11.4999 15.1417 13.3131 15.1417 15.5631C15.1417 15.9126 15.2064 16.3058 15.3357 16.699L15.3573 16.7645C15.3789 16.8301 15.4004 16.9174 15.4436 17.0048L15.4651 17.0267C15.4867 17.114 15.5298 17.2014 15.5945 17.2888L15.6808 17.4199V17.4635H15.6376Z" fill="#FE7B5F"/>
<defs>
<filter id="filter0_d_59_236" x="0" y="0" width="46.2402" height="43.0073" filterUnits="userSpaceOnUse" color-interpolation-filters="sRGB">
<feFlood flood-opacity="0" result="BackgroundImageFix"/>
<feColorMatrix in="SourceAlpha" type="matrix" values="0 0 0 0 0 0 0 0 0 0 0 0 0 0 0 0 0 0 127 0" result="hardAlpha"/>
<feOffset dy="4"/>
<feGaussianBlur stdDeviation="2"/>
<feColorMatrix type="matrix" values="0 0 0 0 0.945098 0 0 0 0 0.945098 0 0 0 0 0.94902 0 0 0 1 0"/>
<feBlend mode="normal" in2="BackgroundImageFix" result="effect1_dropShadow_59_236"/>
<feBlend mode="normal" in="SourceGraphic" in2="effect1_dropShadow_59_236" result="shape"/>
</filter>
</defs>
</svg>
