<svg width="25" height="25" viewBox="0 0 25 25" fill="none" xmlns="http://www.w3.org/2000/svg">
<path fill-rule="evenodd" clip-rule="evenodd" d="M19.2156 10.7156L22.7156 14.5727V18.7156L20.6303 18.7159C20.4245 18.1331 19.8688 17.7156 19.2156 17.7156C18.5624 17.7156 18.0067 18.1331 17.8008 18.7159L15.7156 18.7156V10.7156H19.2156Z" stroke="black" stroke-width="1.5" stroke-linecap="round"/>
<path d="M1.71558 6.71559H15.7156V18.7156L8.63033 18.7159C8.42449 18.1331 7.86879 17.7156 7.21558 17.7156C6.56236 17.7156 6.00666 18.1331 5.80083 18.7159L4.71558 18.7156" stroke="black" stroke-width="1.5" stroke-linecap="round"/>
<path fill-rule="evenodd" clip-rule="evenodd" d="M19.2156 17.7156C20.044 17.7156 20.7156 18.3872 20.7156 19.2156C20.7156 20.044 20.044 20.7156 19.2156 20.7156C18.3871 20.7156 17.7156 20.044 17.7156 19.2156C17.7156 18.3872 18.3871 17.7156 19.2156 17.7156Z" stroke="black" stroke-width="1.5" stroke-linecap="round"/>
<path fill-rule="evenodd" clip-rule="evenodd" d="M7.21558 17.7156C8.044 17.7156 8.71558 18.3872 8.71558 19.2156C8.71558 20.044 8.044 20.7156 7.21558 20.7156C6.38715 20.7156 5.71558 20.044 5.71558 19.2156C5.71558 18.3872 6.38715 17.7156 7.21558 17.7156Z" stroke="black" stroke-width="1.5" stroke-linecap="round"/>
<path d="M5.21558 12.7156H3.71558" stroke="black" stroke-width="1.5" stroke-linecap="round"/>
<path d="M5.21558 15.7156H4.71558" stroke="black" stroke-width="1.5" stroke-linecap="round"/>
<path d="M5.21558 9.71559H2.71558" stroke="black" stroke-width="1.5" stroke-linecap="round"/>
</svg>
