<svg width="13" height="15" viewBox="0 0 13 15" fill="none" xmlns="http://www.w3.org/2000/svg">
<path d="M4.56804 7.30177C4.7813 7.61038 4.71755 7.35322 4.71755 13.5046C4.71755 14.0551 5.34558 14.3701 5.78821 14.0409C7.67966 12.6148 8.05756 12.4913 8.05756 11.8243C8.05756 7.34164 8.00531 7.59373 8.20707 7.30177L11.2785 3.12094H1.49658L4.56804 7.30177Z" fill="#079D49"/>
<path d="M12.4387 0.943679C12.329 0.733469 12.1138 0.602783 11.8768 0.602783H0.898253C0.386511 0.602783 0.085404 1.18005 0.378956 1.59949C0.381368 1.60352 0.345635 1.55461 0.912302 2.32582H11.8627C12.3456 1.6686 12.6684 1.38464 12.4387 0.943679Z" fill="#079D49"/>
</svg>
