<svg width="10" height="10" viewBox="0 0 10 10" fill="none" xmlns="http://www.w3.org/2000/svg">
<path d="M1.84166 8.57453C1.72478 8.57432 1.61336 8.52504 1.53458 8.43869C1.45435 8.35305 1.41448 8.23724 1.425 8.12036L1.52708 6.99786L6.24291 2.28369L7.71666 3.75702L3.00208 8.47078L1.87958 8.57286C1.86666 8.57411 1.85375 8.57453 1.84166 8.57453ZM8.01083 3.46244L6.5375 1.98911L7.42125 1.10536C7.4994 1.02712 7.60545 0.983154 7.71604 0.983154C7.82663 0.983154 7.93268 1.02712 8.01083 1.10536L8.89458 1.98911C8.97282 2.06726 9.01678 2.17331 9.01678 2.2839C9.01678 2.39449 8.97282 2.50054 8.89458 2.57869L8.01125 3.46202L8.01083 3.46244Z" fill="#AAAAAA"/>
</svg>
