<svg width="41" height="39" viewBox="0 0 41 39" fill="none" xmlns="http://www.w3.org/2000/svg">
<g filter="url(#filter0_d_82_794)">
<ellipse cx="20.1434" cy="15.5" rx="15.9247" ry="15.5" fill="#FEFBFA"/>
</g>
<g clip-path="url(#clip0_82_794)">
<path d="M13.453 10L17.6791 5.298C17.858 5.1 18.0926 5 18.3272 5C18.8783 5 19.2442 5.505 19.2442 6.029C19.2442 6.279 19.1615 6.533 18.9754 6.74L16.0447 10H13.453ZM24.2416 10H26.8333L22.6072 5.298C22.4283 5.1 22.1937 5 21.9591 5C21.408 5 21.0421 5.505 21.0421 6.029C21.0421 6.279 21.1248 6.533 21.3109 6.74L24.2416 10ZM9.35547 12V14H9.93351C10.4136 14 10.8514 14.304 11.0626 14.784L14.7493 25H25.537L29.2246 14.786C29.434 14.305 29.8736 14 30.3537 14H30.9308V12H9.35547Z" fill="black"/>
</g>
<defs>
<filter id="filter0_d_82_794" x="0.21875" y="0" width="39.8496" height="39" filterUnits="userSpaceOnUse" color-interpolation-filters="sRGB">
<feFlood flood-opacity="0" result="BackgroundImageFix"/>
<feColorMatrix in="SourceAlpha" type="matrix" values="0 0 0 0 0 0 0 0 0 0 0 0 0 0 0 0 0 0 127 0" result="hardAlpha"/>
<feOffset dy="4"/>
<feGaussianBlur stdDeviation="2"/>
<feColorMatrix type="matrix" values="0 0 0 0 0 0 0 0 0 0 0 0 0 0 0 0 0 0 0.25 0"/>
<feBlend mode="normal" in2="BackgroundImageFix" result="effect1_dropShadow_82_794"/>
<feBlend mode="normal" in="SourceGraphic" in2="effect1_dropShadow_82_794" result="shape"/>
</filter>
<clipPath id="clip0_82_794">
<rect width="21.5753" height="24" fill="white" transform="translate(9.35547 3)"/>
</clipPath>
</defs>
</svg>
