<svg width="17" height="16" viewBox="0 0 17 16" fill="none" xmlns="http://www.w3.org/2000/svg">
<path d="M16.1895 8.14999C16.1895 8.89999 15.5895 9.49999 14.8395 9.49999H9.43954V14.6C9.43954 15.35 8.83954 15.95 8.08954 15.95C7.33954 15.95 6.73954 15.35 6.73954 14.6V9.49999H1.63954C0.889543 9.49999 0.289543 8.89999 0.289543 8.14999C0.289543 7.39999 0.889543 6.79999 1.63954 6.79999H6.73954V1.39999C6.73954 0.649988 7.33954 0.0499878 8.08954 0.0499878C8.83954 0.0499878 9.43954 0.649988 9.43954 1.39999V6.79999H14.8395C15.5895 6.79999 16.1895 7.39999 16.1895 8.14999Z" fill="white"/>
</svg>
