<svg width="103" height="104" viewBox="0 0 103 104" fill="none" xmlns="http://www.w3.org/2000/svg">
<g clip-path="url(#clip0_112_1)">
<path d="M73.2938 102.115C73.2715 102.432 73.4138 102.662 73.6702 102.827C73.6717 102.828 73.6731 102.828 73.6746 102.828C74.1488 103.133 75.0142 103.222 75.9597 103.247C76.0812 103.25 76.1894 103.254 76.2857 103.262C76.3109 103.263 76.3361 103.265 76.3613 103.268C76.3805 103.269 76.4013 103.271 76.4191 103.272C77.3512 103.36 77.2326 103.632 78.9946 103.907C81.004 104.221 81.7924 103.658 81.9317 103.387C82.0488 103.157 81.2011 102.825 80.2542 102.45C80.2083 102.432 80.1623 102.413 80.1164 102.395C79.9904 102.345 79.863 102.293 79.737 102.243C78.6108 101.78 77.5068 101.248 77.3052 100.066C77.0918 98.8136 78.2403 95.4385 78.2403 95.4385L75.0617 94.8696C75.0617 94.8696 74.4971 98.4422 74.217 99.5476C74.0658 100.139 73.7591 100.594 73.5635 101.095C73.5501 101.131 73.5368 101.166 73.5235 101.201C73.4182 101.495 73.3145 101.797 73.2938 102.115Z" fill="#E49963"/>
<path d="M73.2938 102.115C73.2715 102.432 73.4138 102.662 73.6702 102.827C73.6717 102.828 73.6731 102.828 73.6746 102.828C74.1829 103.107 75.0335 103.203 75.9582 103.241C76.0797 103.247 76.1879 103.253 76.2857 103.262C76.3109 103.263 76.3361 103.265 76.3613 103.268C76.3805 103.269 76.4013 103.271 76.4191 103.272C77.3512 103.36 77.2326 103.632 78.9946 103.907C81.004 104.221 81.7924 103.658 81.9317 103.387C82.0488 103.157 81.2011 102.825 80.2542 102.45C79.9756 102.535 78.6478 102.892 77.1348 102.494C75.8041 102.146 74.5119 101.385 73.565 101.094C73.5516 101.129 73.5383 101.164 73.5249 101.2C73.4183 101.495 73.3145 101.797 73.2938 102.115Z" fill="#233862"/>
<path d="M94.3293 100.223C94.5071 101.11 95.7786 100.961 97.1997 100.616C98.6193 100.271 98.283 100.681 100.304 100.458C102.326 100.236 102.938 99.4857 103 99.188C103.055 98.9227 102.056 98.8298 100.984 98.706C100.85 98.6913 100.715 98.6751 100.58 98.6574C99.3707 98.5071 98.4845 97.7304 97.3864 97.0922C96.3461 96.4879 94.7931 94.0281 94.7931 94.0281L92.0205 94.2462C92.0205 94.2462 93.4757 96.4437 94.0374 97.3987C94.3678 97.9603 94.35 98.7031 94.31 99.2779C94.2863 99.5918 94.2656 99.9102 94.3293 100.223Z" fill="#E49963"/>
<path d="M97.1985 100.618C98.6182 100.273 98.2818 100.682 100.303 100.46C102.324 100.237 102.936 99.4871 102.999 99.1893C103.053 98.9241 102.055 98.8312 100.983 98.7074L100.973 98.728C100.973 98.728 99.7607 99.5829 98.0787 99.6227C96.708 99.6551 95.2558 99.2645 94.3088 99.2807C94.2881 99.5932 94.2673 99.9115 94.3296 100.224C94.5074 101.11 95.7789 100.962 97.1985 100.618Z" fill="#233862"/>
<path d="M88.1616 59.7317C88.1616 59.7317 88.8225 58.1223 89.5487 58.0574C90.2748 57.9911 92.5866 57.63 92.7525 57.9587C92.917 58.2873 92.7525 59.4694 92.2576 59.8968C91.7626 60.3242 88.6907 61.014 88.6907 61.014L88.1616 59.7317Z" fill="#E49963"/>
<path d="M83.7055 82.5954L77.7321 98.5851C77.7321 98.5851 76.8148 98.6736 75.9345 98.4215C75.1254 98.1901 74.1978 97.58 74.1978 97.58C74.1978 97.58 75.6796 82.227 78.3959 79.0332C81.1122 75.8394 83.7055 82.5954 83.7055 82.5954Z" fill="#DBA721"/>
<path d="M60.077 76.1267C60.077 76.1267 77.2432 70.3537 81.0709 71.5814C84.8986 72.8091 96.3936 95.5548 96.3936 95.5548C96.3936 95.5548 96.1343 95.8982 95.4259 96.162C94.768 96.4082 93.1735 96.392 93.1735 96.392C93.1735 96.392 82.8003 87.5489 81.5644 84.9697C80.33 82.3905 79.835 79.9336 78.6006 80.1797C77.3662 80.4259 62.6703 86.1974 59.3346 82.759C56.0004 79.3205 56.8717 74.8518 56.8717 74.8518L60.077 76.1267Z" fill="#EBBE3F"/>
<path d="M70.567 49.2705C70.8411 48.7075 71.1479 47.7082 71.2975 45.9249C71.2738 46.1017 70.9656 48.3493 70.0957 49.6227C66.5259 51.9543 59.6825 59.7377 59.8189 61.213C59.8189 61.213 57.4079 57.1467 57.3678 57.1231C57.3678 57.1231 52.9222 51.5004 58.1918 48.2786C60.8695 46.6411 60.8562 44.5409 60.7451 42.7163C60.6324 40.8917 61.4756 33.0346 66.84 35.0907C66.84 35.0907 67.701 34.7104 68.0863 34.7679C68.0863 34.7679 67.7707 34.8283 67.6106 34.9919C68.233 34.9551 69.1221 35.0008 69.8631 35.4208C71.831 36.5306 73.59 46.5026 70.567 49.2705Z" fill="#163560"/>
<path d="M69.8856 49.7391C69.9033 49.7465 68.1621 50.647 66.8521 50.2903C65.6192 49.9558 64.8145 48.367 64.8323 48.364C65.3539 48.2608 65.5051 47.5475 65.4932 44.4834L65.7289 44.5291L69.6959 45.3102C69.6959 45.3102 69.6055 46.5512 69.6025 47.7214C69.5996 48.703 69.6603 49.633 69.8856 49.7391Z" fill="#E49963"/>
<path d="M69.696 45.3088C69.696 45.3088 69.6056 46.5498 69.6026 47.72C67.3828 47.6581 66.2091 45.6434 65.729 44.5277L69.696 45.3088Z" fill="#D68D5D"/>
<path d="M65.32 44.0988C65.32 44.0988 64.1567 42.2712 63.8781 40.7075C63.6795 39.5918 64.25 35.4547 68.429 36.0516C68.429 36.0516 69.6426 36.171 70.7837 36.9374C71.6906 37.5475 73.0006 38.8622 71.5365 42.4716L71.1556 43.6905L65.32 44.0988Z" fill="#163560"/>
<path d="M70.4369 46.4171C70.4369 46.4171 65.1851 46.5025 65.1821 43.2498C65.1792 39.9955 64.499 37.8157 67.851 37.6241C71.2045 37.4311 71.8565 38.672 72.1233 39.7583C72.39 40.843 71.8032 46.3109 70.4369 46.4171Z" fill="#E49963"/>
<path d="M70.2424 37.5432C70.2424 37.5432 68.8049 41.3604 66.5969 41.9249C64.3904 42.4894 63.4331 41.9013 63.4331 41.9013C63.4331 41.9013 63.6465 40.5645 63.9977 38.23C63.9977 38.23 69.1576 35.7274 70.2424 37.5432Z" fill="#163560"/>
<path d="M69.8857 37.854C69.8857 37.854 70.9601 38.7059 71.2209 39.5342C71.4832 40.3625 71.6003 42.0677 72.0997 42.0103C72.0997 42.0103 73.183 39.4163 71.9648 37.9484C70.6756 36.392 69.8857 37.854 69.8857 37.854Z" fill="#163560"/>
<path d="M58.1923 63.7906C57.6751 61.63 59.4371 57.4384 61.2761 53.9675C62.9447 50.8223 64.677 48.2711 64.8326 48.3625C69.2338 50.9609 69.6324 48.8002 69.6324 48.8002C69.6324 48.8002 73.6306 49.3279 74.7627 51.2674C76.3291 53.9483 78.0332 61.9911 79.7093 61.8717C80.4784 61.8172 88.2182 58.924 88.2182 58.924C88.2182 58.924 89.5075 60.1252 89.26 61.599C89.26 61.599 85.4382 64.1444 82.2077 65.7685C80.4991 66.6278 78.9535 67.2291 78.2274 67.0581C76.7559 66.7133 74.456 63.319 73.2127 61.3205C73.2097 61.3161 73.2067 61.3116 73.2038 61.3072C71.6182 70.2357 73.7743 72.2682 72.6822 73.21C71.5293 74.2048 69.8829 72.7369 66.2597 74.2976C63.8842 75.3234 60.5855 76.8047 58.3657 77.0626C57.2009 77.1982 56.3325 76.9977 56.0495 76.2151C55.227 73.9439 59.1792 67.9086 58.1923 63.7906Z" fill="#FF785B"/>
<path d="M69.269 44.445C69.269 44.445 69.3668 44.8577 70.4012 44.7943C70.4012 44.7943 71.2696 44.7413 71.2429 44.2873C71.2429 44.2859 70.4012 43.9631 69.269 44.445Z" fill="white"/>
<path d="M56.0509 76.2167C56.3339 76.9993 57.2023 77.1997 58.367 77.0641C59.9038 76.398 66.5411 73.8409 66.4655 72.1076C66.3559 69.5417 65.1896 69.4606 66.0121 66.2933C66.673 63.7509 60.541 59.0229 59.5629 57.9956C57.7239 61.4665 57.6735 61.6301 58.1907 63.7907C59.1791 67.9087 55.2269 73.944 56.0509 76.2167Z" fill="#F25B3B"/>
<path d="M73.2129 61.3205C74.4547 63.3191 76.7546 66.7133 78.2276 67.0582C78.9537 67.2292 80.4978 66.6278 82.2079 65.7686C80.9602 66.0884 79.748 66.0796 78.5714 65.9661C77.2955 65.8437 76.925 64.2874 74.9082 61.9543C73.5982 60.4407 73.2766 60.8209 73.2129 61.3205Z" fill="#3B76CA"/>
<path d="M67.0625 66.2328C67.0625 66.2328 68.1739 65.3736 69.2231 65.5784C70.2722 65.7833 70.7879 66.4996 70.7465 66.8268C70.705 67.154 70.1493 68.0751 69.3461 68.1577C68.5429 68.2402 66.2578 67.6669 66.2578 67.6669L67.0625 66.2328Z" fill="#E49963"/>
<path d="M64.8323 48.3625C64.8323 48.3625 60.5526 48.6249 59.0707 50.6809C56.9843 53.574 51.9784 66.4436 54.3509 68.0884C57.0213 69.941 67.3738 68.0339 67.3738 68.0339C67.3738 68.0339 67.6894 66.5674 67.2508 65.857C66.8121 65.1481 59.6754 64.0014 59.3464 63.6728C59.0174 63.3456 63.4631 57.2852 63.4631 56.3036C63.4631 55.322 64.8323 48.3625 64.8323 48.3625Z" fill="#FF785B"/>
<path d="M88.5869 54.4392L91.521 53.6566C91.6218 53.6301 91.7107 53.6536 91.7729 53.7067L91.7759 53.7052L92.1864 53.9513L91.8589 61.4871L89.0403 62.2388L88.8329 62.2225L88.3587 61.9337V61.9322C88.292 61.888 88.249 61.8143 88.249 61.717V54.8637C88.249 54.6794 88.4017 54.4878 88.5869 54.4392Z" fill="#233862"/>
<path d="M89.04 62.2403L91.9742 61.4577C92.1594 61.4076 92.312 61.216 92.312 61.0317V54.1784C92.312 53.9942 92.1594 53.8836 91.9742 53.9322L89.04 54.7149C88.8548 54.765 88.7021 54.9566 88.7021 55.1408V61.9941C88.7021 62.1784 88.8548 62.2889 89.04 62.2403Z" fill="#2B478B"/>
<path d="M91.2054 54.8283L91.8886 54.6249C91.9908 54.5939 92.0723 54.4863 92.0693 54.3832C92.0664 54.28 91.9804 54.2211 91.8782 54.252L91.195 54.4554C91.0928 54.4863 91.0113 54.5939 91.0142 54.6971C91.0157 54.8003 91.1031 54.8592 91.2054 54.8283Z" fill="#233862"/>
<path d="M24.3643 0.14833C35.4162 1.44826 43.5133 10.9368 43.5058 21.942C48.9651 25.6988 54.3562 31.5013 55.5832 40.1292C55.5832 40.1292 47.7648 36.729 39.9523 34.0304C35.5615 40.8351 27.6452 44.9501 19.157 43.9523C7.2263 42.5477 -1.28121 31.6045 0.157706 19.5087C1.59662 7.41289 12.4337 -1.25477 24.3643 0.14833Z" fill="#F2851C"/>
<path d="M24.0193 21.5121C22.164 21.689 20.2894 21.5667 18.4711 21.154C17.5153 20.9358 16.0053 20.6632 15.6837 19.5224C15.1161 17.5003 18.3822 16.4156 19.7796 16.3566C21.835 16.2137 26.7075 15.9454 27.8648 18.4333C28.9125 20.6809 25.4019 21.381 24.0193 21.5121ZM24.0193 20.7133C24.3157 20.6838 24.7677 20.6558 25.2359 20.5792C23.6592 19.7568 20.2894 19.5165 18.7705 20.4008C20.4924 20.7811 22.2662 20.8857 24.0193 20.7133ZM25.0981 17.4856C23.474 16.9756 21.4527 17.0375 19.7811 17.154C18.9039 17.1908 17.7465 17.4089 17.136 18.1444C16.3921 19.0405 17.053 19.714 17.8547 20.0958C18.9068 19.0906 20.7873 19.1451 22.1418 19.1717C23.5955 19.2011 25.0981 19.3397 26.2496 20.3036C26.6571 20.1267 26.9742 19.8673 27.0542 19.4723C27.2913 18.2918 25.9487 17.7524 25.0981 17.4856Z" fill="white"/>
<path d="M4.98772 22.9683C4.98031 22.902 4.98772 22.8445 5.0055 22.7958C5.01291 22.3419 5.0381 21.8806 5.10034 21.4045C5.45303 18.7295 6.90528 16.5571 9.42004 14.9477C10.7478 14.0987 12.2919 13.6212 13.7857 13.1599L14.0835 13.0685C15.8811 12.5114 17.4252 12.2034 18.9441 12.1017C19.9148 12.0354 20.8972 12.0029 21.8619 12.0029C24.519 12.0029 26.9982 12.2461 29.2314 12.7251C31.5031 13.213 34.5958 14.3758 36.4304 17.1452C37.8456 19.2822 38.379 22.1415 37.896 24.9889C37.3195 28.3758 35.4345 30.7251 32.2929 31.972C29.5426 33.0641 26.2883 33.6389 22.3436 33.7258C22.0946 33.7288 21.8456 33.7317 21.5967 33.7317C19.3813 33.7317 16.4768 33.6006 13.6597 32.5762C11.3895 31.7509 8.81691 30.8165 7.04902 28.8091C5.71829 27.2984 5.03217 25.35 5.00698 23.1186C4.99957 23.067 4.99216 23.0125 4.98772 22.9683ZM36.5252 19.011C35.4968 16.5409 33.2502 14.6897 30.199 13.7966C27.5242 13.014 24.6894 12.9049 21.5285 12.8519C21.3952 12.8489 21.2633 12.8489 21.1299 12.8489C18.3825 12.8489 15.7121 13.3235 12.7291 14.3434C10.7419 15.0228 7.25945 16.6323 6.25621 19.7892C5.97465 20.672 5.80572 21.6448 5.76571 22.5895C5.75681 22.6927 5.75681 22.8003 5.75385 22.9079C5.75978 22.9285 5.77015 22.9462 5.77311 22.9698C5.80423 23.2439 6.02207 24.4922 6.28585 24.5939C6.72449 24.7634 7.07273 24.0707 7.50099 24.0737C7.92481 24.0766 7.97223 24.0383 8.29528 24.3552C8.67168 24.7236 8.78431 25.577 8.92805 26.0471C9.1859 26.8843 9.25555 28.056 10.0009 27.0258C10.5315 26.2918 10.8249 24.9285 11.9541 25.602C12.6194 25.9985 12.855 27.1776 13.6627 27.2852C14.3251 27.3736 15.475 26.7045 16.1211 26.5527C17.3333 26.2667 17.9275 26.1916 18.3514 27.4679C18.7959 28.8047 19.362 31.0287 21.0069 29.4547C21.6723 28.818 22.2265 27.9941 22.9852 27.465C24.1144 26.6779 24.845 27.2807 25.7741 28.1105C26.5966 28.8445 27.01 28.7531 28.037 28.2815C28.2533 28.1827 28.3734 27.9528 28.6327 27.8968C29.0906 27.7981 29.3529 27.944 29.673 28.2505C30.1783 28.7339 29.9456 29.3647 30.7103 29.3309C31.3845 29.3014 31.4364 28.4878 31.5846 27.9027C31.7328 27.3161 31.7535 26.5615 32.1062 26.0516C32.4248 25.5902 33.025 25.2734 33.5837 25.4281C34.009 25.546 34.1083 25.941 34.4165 26.1842C35.5086 27.0435 36.5934 26.7428 37.0039 25.3028C37.0068 25.2925 37.0142 25.2866 37.0172 25.2763C37.0528 25.1054 37.0987 24.9388 37.1269 24.7649L37.2128 24.1311C37.4099 22.3316 37.1728 20.563 36.5252 19.011ZM13.4004 31.6241C15.724 32.5247 18.2684 32.9255 21.6515 32.9255C21.8723 32.9255 22.0931 32.9241 22.3139 32.9211C27.2249 32.8135 33.8652 32.1282 36.2022 27.6772C35.762 27.9056 35.2612 27.941 34.7381 27.63C34.3928 27.4252 34.1809 26.9093 33.8623 26.7487C32.5241 26.0781 32.6101 26.9874 32.4352 27.7288C32.2589 28.476 32.0973 29.4473 31.5831 30.056C30.159 31.7465 29.83 29.0862 28.8401 28.9948C28.2 28.9359 27.7776 29.7082 27.0574 29.7214C25.8304 29.7465 25.4733 28.4362 24.5086 28.0221C22.7629 27.2748 21.7834 30.8784 20.0896 31.0081C17.7971 31.1849 18.2491 27.3073 16.5301 27.269C15.0794 27.2365 13.8805 28.7723 12.5942 27.6168C12.3171 27.3677 12.0415 26.5527 11.7377 26.4804C11.0027 26.3051 10.8797 27.1378 10.5996 27.5888C10.3684 27.9602 10.0498 28.5866 9.52377 28.5689C9.03326 28.5527 8.83321 28.0648 8.64797 27.6875C8.42865 27.2409 8.09819 24.9418 7.67586 24.8253C7.13497 24.6765 6.73041 25.6684 6.0769 25.4473C6.28881 26.2137 6.60445 26.8961 7.02086 27.4841C8.51905 29.6109 10.7019 30.5792 13.4004 31.6241Z" fill="white"/>
<path d="M30.6494 23.1186C30.1634 23.2645 29.9544 22.4952 30.4405 22.3493C32.0469 21.8658 33.5628 20.9476 34.1333 19.266C34.2964 18.7826 35.058 18.9904 34.8921 19.4782C34.2267 21.4384 32.5388 22.5512 30.6494 23.1186Z" fill="white"/>
<path d="M28.926 23.5121C28.4192 23.5121 28.4192 22.7133 28.926 22.7133C29.4328 22.7133 29.4328 23.5121 28.926 23.5121Z" fill="white"/>
</g>
<defs>
<clipPath id="clip0_112_1">
<rect width="103" height="104" fill="white"/>
</clipPath>
</defs>
</svg>
