<?xml version="1.0" encoding="UTF-8" standalone="no"?> <svg width="64" height="64" viewBox="0 0 64 64" fill="none" xmlns="http://www.w3.org/2000/svg">
<path d="M55.52 13.1701H50.52C50.2548 13.1701 50.0004 13.2755 49.8129 13.463C49.6254 13.6506 49.52 13.9049 49.52 14.1701C49.52 14.4354 49.6254 14.6897 49.8129 14.8772C50.0004 15.0648 50.2548 15.1701 50.52 15.1701H55.52C56.443 15.1701 57.3281 15.5368 57.9807 16.1894C58.6334 16.842 59 17.7272 59 18.6501V38.2201C59 39.1431 58.6334 40.0282 57.9807 40.6809C57.3281 41.3335 56.443 41.7001 55.52 41.7001H23.31C22.5483 41.6888 21.8115 41.427 21.2133 40.9553C20.6151 40.4836 20.1887 39.8282 20 39.0901L14.14 16.4901C13.8903 15.5321 13.3276 14.685 12.5412 14.0834C11.7549 13.4819 10.79 13.1604 9.8 13.1701H4C3.73478 13.1701 3.48043 13.2755 3.29289 13.463C3.10536 13.6506 3 13.9049 3 14.1701C3 14.4354 3.10536 14.6897 3.29289 14.8772C3.48043 15.0648 3.73478 15.1701 4 15.1701H9.8C10.3388 15.1729 10.8615 15.3539 11.2866 15.685C11.7117 16.016 12.0153 16.4784 12.15 17.0001L18 39.6001C18.3069 40.7728 18.9932 41.8108 19.9519 42.5525C20.9107 43.2942 22.0879 43.6977 23.3 43.7001H55.52C56.9726 43.6975 58.3649 43.1193 59.392 42.0922C60.4192 41.065 60.9974 39.6727 61 38.2201V18.6501C60.9974 17.1976 60.4192 15.8052 59.392 14.7781C58.3649 13.751 56.9726 13.1728 55.52 13.1701V13.1701Z" fill="#F8774A"/>
<path d="M30.42 45.9199C29.8008 45.918 29.1951 46.1004 28.6798 46.4438C28.1646 46.7872 27.7632 47.2762 27.5268 47.8484C27.2903 48.4207 27.2295 49.0504 27.352 49.6573C27.4745 50.2643 27.7749 50.8211 28.2148 51.2568C28.6548 51.6925 29.2144 51.9874 29.8225 52.1041C30.4307 52.2207 31.0597 52.1538 31.6297 51.9118C32.1996 51.6698 32.6847 51.2637 33.0231 50.7451C33.3615 50.2266 33.538 49.6191 33.53 48.9999C33.5195 48.1811 33.1876 47.3993 32.6057 46.8231C32.0239 46.2469 31.2389 45.9225 30.42 45.9199V45.9199ZM30.42 50.1499C30.1994 50.1518 29.9831 50.0885 29.7983 49.9679C29.6136 49.8473 29.4685 49.6749 29.3814 49.4721C29.2943 49.2694 29.269 49.0455 29.3087 48.8284C29.3484 48.6114 29.4513 48.4109 29.6046 48.2522C29.7578 48.0934 29.9545 47.9834 30.17 47.9361C30.3855 47.8887 30.6102 47.9061 30.8159 47.986C31.0216 48.0658 31.1991 48.2047 31.3261 48.3851C31.4532 48.5655 31.5241 48.7794 31.53 48.9999C31.534 49.1487 31.5083 49.2967 31.4545 49.4354C31.4006 49.5742 31.3196 49.7007 31.2163 49.8078C31.1129 49.9149 30.9893 50.0003 30.8526 50.059C30.7159 50.1177 30.5688 50.1487 30.42 50.1499V50.1499Z" fill="#F8774A"/>
<path d="M50.4901 45.9199C49.8709 45.918 49.2651 46.1004 48.7499 46.4438C48.2347 46.7872 47.8333 47.2762 47.5968 47.8484C47.3604 48.4207 47.2995 49.0504 47.4221 49.6573C47.5446 50.2643 47.8449 50.8211 48.2849 51.2568C48.7249 51.6925 49.2845 51.9874 49.8926 52.1041C50.5007 52.2207 51.1298 52.1538 51.6997 51.9118C52.2697 51.6698 52.7547 51.2637 53.0931 50.7451C53.4316 50.2266 53.608 49.6191 53.6001 48.9999C53.5896 48.1811 53.2576 47.3993 52.6758 46.8231C52.094 46.2469 51.309 45.9225 50.4901 45.9199ZM50.4901 50.1499C50.2695 50.1518 50.0532 50.0885 49.8684 49.9679C49.6836 49.8473 49.5386 49.6749 49.4515 49.4721C49.3644 49.2694 49.3391 49.0455 49.3788 48.8284C49.4185 48.6114 49.5214 48.4109 49.6746 48.2522C49.8279 48.0934 50.0246 47.9834 50.2401 47.9361C50.4556 47.8887 50.6803 47.9061 50.886 47.986C51.0916 48.0658 51.2691 48.2047 51.3962 48.3851C51.5232 48.5655 51.5942 48.7794 51.6001 48.9999C51.6055 49.149 51.5807 49.2977 51.5274 49.437C51.474 49.5763 51.3931 49.7035 51.2895 49.8108C51.1859 49.9182 51.0617 50.0035 50.9243 50.0618C50.787 50.1201 50.6393 50.15 50.4901 50.1499V50.1499Z" fill="#F8774A"/>
<path d="M32 27.4597C31.1899 27.5093 30.3928 27.2382 29.7809 26.7049C29.1691 26.1716 28.7916 25.419 28.73 24.6097C28.6803 24.269 28.5003 23.9609 28.2281 23.7501C27.9558 23.5394 27.6123 23.4424 27.2701 23.4797C26.9266 23.4422 26.582 23.5389 26.3081 23.7494C26.0342 23.96 25.8522 24.2682 25.8 24.6097C25.8796 25.7464 26.3233 26.8271 27.0654 27.6917C27.8076 28.5564 28.8086 29.1588 29.92 29.4097L30.56 29.5997V31.9997C30.6487 32.3202 30.84 32.6028 31.1046 32.8041C31.3692 33.0055 31.6925 33.1145 32.0251 33.1145C32.3576 33.1145 32.6809 33.0055 32.9455 32.8041C33.2101 32.6028 33.4014 32.3202 33.4901 31.9997V29.5897L34.12 29.3997C35.2233 29.1433 36.2152 28.5395 36.9496 27.6772C37.6841 26.815 38.1224 25.7397 38.2001 24.6097C38.2001 21.7997 35.42 19.5097 32 19.5097C31.1899 19.5593 30.3928 19.2882 29.7809 18.7549C29.1691 18.2216 28.7916 17.469 28.73 16.6597C28.7916 15.8504 29.1691 15.0978 29.7809 14.5645C30.3928 14.0312 31.1899 13.7601 32 13.8097C32.8102 13.7601 33.6073 14.0312 34.2192 14.5645C34.831 15.0978 35.2085 15.8504 35.2701 16.6597C35.3587 16.9802 35.55 17.2628 35.8146 17.4641C36.0792 17.6655 36.4025 17.7745 36.7351 17.7745C37.0676 17.7745 37.3909 17.6655 37.6555 17.4641C37.9201 17.2628 38.1114 16.9802 38.2001 16.6597C38.124 15.5292 37.6862 14.4531 36.9515 13.5906C36.2168 12.728 35.2241 12.1247 34.12 11.8697L33.4901 11.6797V8.1197C33.4014 7.79922 33.2101 7.51664 32.9455 7.31528C32.6809 7.11392 32.3576 7.00488 32.0251 7.00488C31.6925 7.00488 31.3692 7.11392 31.1046 7.31528C30.84 7.51664 30.6487 7.79922 30.56 8.1197V11.6697L29.92 11.8497C28.807 12.1011 27.8049 12.705 27.0626 13.5716C26.3203 14.4382 25.8775 15.5213 25.8 16.6597C25.8 19.4697 28.58 21.7597 32 21.7597C32.8102 21.7101 33.6073 21.9812 34.2192 22.5145C34.831 23.0478 35.2085 23.8004 35.2701 24.6097C35.2085 25.419 34.831 26.1716 34.2192 26.7049C33.6073 27.2382 32.8102 27.5093 32 27.4597V27.4597Z" fill="#F8774A"/>
</svg>
