<svg width="25" height="24" viewBox="0 0 25 24" fill="none" xmlns="http://www.w3.org/2000/svg">
<path d="M10.1945 4.58646C11.0981 2.47118 14.119 2.47118 15.0226 4.58646L15.652 6.05983C16.0221 6.9261 16.8345 7.52663 17.7769 7.63041L19.5332 7.82385C21.7514 8.06813 22.6675 10.7755 21.0475 12.2988L19.5563 13.7012C18.9006 14.3177 18.6109 15.2258 18.7895 16.1045L19.1495 17.8758C19.6053 20.118 17.1337 21.8109 15.1829 20.5927L14.005 19.8572C13.1515 19.3242 12.0656 19.3242 11.2121 19.8572L10.0342 20.5927C8.08339 21.8109 5.61175 20.118 6.06751 17.8758L6.42756 16.1045C6.60617 15.2258 6.31646 14.3177 5.66079 13.7012L4.16952 12.2988C2.54956 10.7755 3.4657 8.06813 5.68381 7.82385L7.4402 7.63041C8.38253 7.52663 9.195 6.9261 9.56506 6.05983L10.1945 4.58646Z" stroke="#302F3C" stroke-width="1.5" stroke-linecap="round" stroke-linejoin="round"/>
</svg>
