<svg width="26" height="24" viewBox="0 0 26 24" fill="none" xmlns="http://www.w3.org/2000/svg">
<path d="M10.4517 7L10.2447 7.47905C9.91043 8.25243 9.82642 9.10637 10.0038 9.92729C10.2745 11.1799 11.3006 12.1473 12.5971 12.3723L12.7112 12.3921C13.1224 12.4635 13.5433 12.4635 13.9545 12.3921L14.0686 12.3723C15.3651 12.1473 16.3912 11.1799 16.6619 9.92729C16.8393 9.10637 16.7553 8.25243 16.421 7.47905L16.214 7" stroke="#302F3C" stroke-width="1.5" stroke-linecap="round"/>
<path d="M21.7929 15.143C21.2062 17.6504 19.2007 19.6204 16.6289 20.2251C14.4676 20.7334 12.2 20.7334 10.0387 20.2251C7.46699 19.6204 5.46149 17.6504 4.87479 15.143C4.35059 12.9026 4.47808 10.5648 5.243 8.39084L5.35664 8.06787C6.1983 5.67585 8.30087 3.91013 10.8582 3.44766L11.5586 3.32102C12.732 3.10881 13.9357 3.10881 15.1091 3.32102L15.8094 3.44766C18.3668 3.91013 20.4694 5.67586 21.311 8.06789L21.4247 8.39084C22.1896 10.5648 22.3171 12.9026 21.7929 15.143Z" stroke="#302F3C" stroke-width="1.5"/>
</svg>
